<?xml version="1.0" encoding="utf-8"?>
<!-- Generator: Adobe Illustrator 16.0.3, SVG Export Plug-In . SVG Version: 6.00 Build 0)  -->
<!DOCTYPE svg PUBLIC "-//W3C//DTD SVG 1.1//EN" "http://www.w3.org/Graphics/SVG/1.1/DTD/svg11.dtd">
<svg version="1.1" id="Layer_1" xmlns="http://www.w3.org/2000/svg" xmlns:xlink="http://www.w3.org/1999/xlink" x="0px" y="0px"
	 width="15px" height="15px" viewBox="9 9 15 15" enable-background="new 9 9 15 15" xml:space="preserve">
<g id="Symbols">
	<g id="ic_instagram">
		<g id="Group-8">
			<g id="_x30_02-instagram" transform="translate(9.000000, 9.000000)">
				<path id="Shape" fill="#FFFFFF" d="M10.312,0H4.688C2.099,0,0,2.099,0,4.688v5.625C0,12.9,2.099,15,4.688,15h5.625
					C12.9,15,15,12.9,15,10.312V4.688C15,2.099,12.9,0,10.312,0z M13.594,10.312c0,1.81-1.472,3.281-3.281,3.281H4.688
					c-1.81,0-3.281-1.472-3.281-3.281V4.688c0-1.81,1.472-3.281,3.281-3.281h5.625c1.81,0,3.281,1.472,3.281,3.281V10.312z"/>
				<path id="Shape_1_" fill="#FFFFFF" d="M7.5,4C5.567,4,4,5.567,4,7.5S5.567,11,7.5,11C9.434,11,11,9.433,11,7.5S9.434,4,7.5,4z
					 M7.5,9.688c-1.206,0-2.188-0.982-2.188-2.188c0-1.207,0.982-2.188,2.188-2.188c1.205,0,2.188,0.981,2.188,2.188
					C9.688,8.705,8.705,9.688,7.5,9.688z"/>
				<circle id="Oval" fill="#FFFFFF" cx="11.5" cy="3.5" r="1"/>
			</g>
		</g>
	</g>
</g>
</svg>
