<?xml version="1.0" encoding="utf-8"?>
<!-- Generator: Adobe Illustrator 16.0.3, SVG Export Plug-In . SVG Version: 6.00 Build 0)  -->
<!DOCTYPE svg PUBLIC "-//W3C//DTD SVG 1.1//EN" "http://www.w3.org/Graphics/SVG/1.1/DTD/svg11.dtd">
<svg version="1.1" id="Layer_1" xmlns="http://www.w3.org/2000/svg" xmlns:xlink="http://www.w3.org/1999/xlink" x="0px" y="0px"
	 width="13px" height="11px" viewBox="10 11 13 11" enable-background="new 10 11 13 11" xml:space="preserve">
<title>ic_twitter</title>
<desc>Created with Sketch.</desc>
<g id="Symbols">
	<g id="ic_twitter">
		<g id="Group-10">
			<g id="_x30_01-twitter-logo-silhouette" transform="translate(10.000000, 11.000000)">
				<path id="Shape" fill="#FFFFFF" d="M13,1.301c-0.479,0.221-0.992,0.371-1.531,0.438c0.551-0.343,0.973-0.888,1.172-1.536
					c-0.516,0.318-1.086,0.549-1.694,0.674C10.46,0.337,9.768,0,9,0C7.527,0,6.333,1.244,6.333,2.777
					c0,0.217,0.023,0.43,0.069,0.633C4.186,3.294,2.221,2.188,0.906,0.508c-0.23,0.41-0.361,0.887-0.361,1.396
					c0,0.964,0.471,1.814,1.186,2.312C1.294,4.201,0.883,4.075,0.523,3.867v0.035c0,1.346,0.92,2.468,2.139,2.724
					C2.438,6.688,2.203,6.723,1.959,6.723c-0.172,0-0.339-0.018-0.502-0.051c0.339,1.104,1.324,1.907,2.491,1.93
					C3.036,9.346,1.885,9.788,0.636,9.788C0.421,9.788,0.209,9.774,0,9.75C1.18,10.539,2.582,11,4.088,11
					c4.906,0,7.588-4.232,7.588-7.904l-0.01-0.359C12.189,2.348,12.644,1.858,13,1.301z"/>
			</g>
		</g>
	</g>
</g>
</svg>
